<svg xmlns="http://www.w3.org/2000/svg" width="29.977" height="18.244" viewBox="0 0 29.977 18.244">
  <g id="carrefour-3" transform="translate(-0.011 -0.005)">
    <path id="Path" d="M8.975,0s-2.68,2.8-2.68,8.226a17.031,17.031,0,0,0,2.368,8.912L0,8.351Z" transform="translate(0.011 0.55)" fill="#cc2229"/>
    <path id="Shape" d="M0,9.021C.241,3.417,1.58-.143,5,0A3.875,3.875,0,0,1,8.934,2.918,2.3,2.3,0,0,0,6.336,5.3,2.6,2.6,0,0,0,8.9,8.094c.062,0,2.48-.208,3.068-2.065.79-2.5-1-5.235-1-5.235l8.6,8.413-8.85,8.538a10.045,10.045,0,0,0,.872-5.11c-.162-1.941-2.68-2.306-2.742-2.306a2.6,2.6,0,0,0-2.68,2.68A2.3,2.3,0,0,0,8.663,15.5a3.874,3.874,0,0,1-4.051,2.742C1.184,18.245,0,14.63,0,9.021Z" transform="translate(10.419 0.005)" fill="#33348e"/>
  </g>
</svg>
