<svg xmlns="http://www.w3.org/2000/svg" width="22" height="15" viewBox="0 0 22 15">
  <path id="Cash" d="M20.339,15H4.773a1.677,1.677,0,0,1-1.66-1.69V11.831H1.66A1.677,1.677,0,0,1,0,10.141V1.69A1.677,1.677,0,0,1,1.66,0H17.226a1.677,1.677,0,0,1,1.661,1.69V3.169h1.453A1.677,1.677,0,0,1,22,4.859V13.31A1.677,1.677,0,0,1,20.339,15ZM4.358,11.831V13.31a.424.424,0,0,0,.415.422H20.339a.425.425,0,0,0,.417-.422V4.859a.425.425,0,0,0-.417-.422H18.887v5.7a1.677,1.677,0,0,1-1.661,1.69ZM1.66,1.267a.419.419,0,0,0-.415.423v8.451a.419.419,0,0,0,.415.422H17.226a.42.42,0,0,0,.417-.422V1.69a.42.42,0,0,0-.417-.423ZM9.443,8.028a2.113,2.113,0,1,1,2.075-2.112A2.1,2.1,0,0,1,9.443,8.028Zm5.578-1.479H13.983a.634.634,0,0,1,0-1.267h1.038a.634.634,0,0,1,0,1.267ZM4.9,6.549H3.865a.634.634,0,0,1,0-1.267H4.9a.634.634,0,0,1,0,1.267Z" transform="translate(0)" fill="#ff7643"/>
</svg>
