<svg xmlns="http://www.w3.org/2000/svg" width="27.933" height="27.932" viewBox="0 0 27.933 27.932">
  <g id="celanese-1" transform="translate(-0.045 -0.005)">
    <path id="Shape" d="M4.977,24.681a25.3,25.3,0,0,0,9.752-.8,25.874,25.874,0,0,0,8.094-3.516v-4.71a28.435,28.435,0,0,1-6.435,2.654c-5.773,1.59-9.156.331-7.763-3.716C10.55,8.891,20.767,5.838,24.947,5.375A13.936,13.936,0,0,1,13.934,27.932H13.9A13.87,13.87,0,0,1,4.977,24.681ZM0,14A13.946,13.946,0,0,1,13.933,0a14.377,14.377,0,0,1,8.16,2.588C16.255,3.582,4.047,6.635.2,16.454A15.346,15.346,0,0,1,0,14Z" transform="translate(0.045 0.005)"/>
  </g>
</svg>
