<svg xmlns="http://www.w3.org/2000/svg" width="22" height="22" viewBox="0 0 22 22">
  <path id="Close" d="M11,22A11,11,0,1,1,22,11,11.012,11.012,0,0,1,11,22ZM11,1.245A9.756,9.756,0,1,0,20.755,11,9.766,9.766,0,0,0,11,1.245Zm2.935,13.312a.633.633,0,0,1-.44-.182L11,11.879l-2.495,2.5a.63.63,0,0,1-.44.182A.621.621,0,0,1,7.624,13.5L10.119,11,7.624,8.505a.623.623,0,0,1,.881-.88L11,10.12l2.495-2.495a.623.623,0,0,1,1.063.441.616.616,0,0,1-.182.439L11.881,11l2.495,2.5a.621.621,0,0,1,0,.879A.622.622,0,0,1,13.935,14.557Z" transform="translate(0 0)" fill="#ff7643"/>
</svg>
