<svg xmlns="http://www.w3.org/2000/svg" width="29.99" height="19.792" viewBox="0 0 29.99 19.792">
  <g id="h-m" transform="translate(-0.005 -0.012)">
    <path id="Shape" d="M6.683,19.632c-.5-.707-.886-.734-1.26-1.288a.592.592,0,0,1-.1-.443c.305-1.177,1.053-3.573,2.2-6.759-1.454.333-3.019.665-3.67.8q-1.184,3.137-2.271,6.19c-.444,1.274-1.621,1.025-1.205-.18.637-1.9,1.357-3.877,2.105-5.817-.817-.083-1.094-.651-1.551-1.121C.756,10.824.4,10.851.2,10.6c-.332-.472-.3-.68.471-.887C1.725,9.4,2.764,9.134,3.72,8.9c1.3-3.366,2.479-6.26,3.1-7.8.485-1.191,1.732-1.08,1.261.111C7.126,3.581,6.142,6.06,5.16,8.553q1.809-.386,3.629-.72c.8-2.077,1.744-4.377,2.8-6.8A.8.8,0,0,1,12.056.6c.665-.1,1.745-.679,2.119-.6.333.083.305.5.1,1.066-.609,1.648-1.5,3.794-2.493,6.329.637-.069.969-.1.969-.1.887-.1,1.067.333.817.817-.221.374-.457.124-1.288,1.371a2.666,2.666,0,0,1-1.676.984Q8.92,14.93,7.431,19.452a.444.444,0,0,1-.419.34A.4.4,0,0,1,6.683,19.632ZM25.3,19.549c-.72-.956-1.5-.97-1.413-1.621C24.327,14.771,25.906,6.78,26.307,4.9c-2.092,4.265-4.252,9.625-5.36,12.643-.236.637-.664.6-.928.125-.388-.679-1.108-1.011-1.219-1.787-.388-2.479.429-7.215.54-10.22C18.22,8.926,16.308,15.3,15.477,18.164c-.347,1.191-1.5.983-1.191-.153,1.274-4.833,4-13.35,5.179-16.411.277-.734,1.012-.692,1.607-1,1.08-.541,1.634-.457,1.649.083a21.229,21.229,0,0,1-.167,2.326C22.138,6.7,21.473,9.7,21.418,13.5c1.786-4.625,3.269-7.81,5.194-11.758C27.221.479,27.623.715,28.121.479c1.952-.873,2.021-.333,1.759.748-.941,3.919-3.352,16.313-3.725,18.211a.375.375,0,0,1-.381.347A.62.62,0,0,1,25.3,19.549Z" transform="translate(0.004 0.012)" fill="#c7232f"/>
    <path id="Shape-2" data-name="Shape" d="M.8,5.549C-.085,5.275-.319,4.027.525,3.056q.377-.445.781-.868c-.062-.209-.112-.382-.144-.5A1.3,1.3,0,0,1,1.342.37,1,1,0,1,1,2.907,1.616a10.368,10.368,0,0,1-.695.934q.131.416.264.832c.08-.08.16-.158.238-.229.54-.457,1.05,0,.526.776-.118.175-.248.363-.392.545.066.187.124.346.171.465.291.707-.443.886-.679.305-.02-.049-.04-.1-.061-.158A1.758,1.758,0,0,1,1.148,5.6,1.165,1.165,0,0,1,.8,5.549Z" transform="translate(10.359 11.283)" fill="#c7232f"/>
  </g>
</svg>
