<svg xmlns="http://www.w3.org/2000/svg" width="22" height="16" viewBox="0 0 22 16">
  <path id="Mail" d="M19.3,16H2.7A2.721,2.721,0,0,1,0,13.263V2.737A2.721,2.721,0,0,1,2.7,0H19.3A2.72,2.72,0,0,1,22,2.737V13.263A2.72,2.72,0,0,1,19.3,16ZM2.7,1.264A1.465,1.465,0,0,0,1.246,2.737V13.263A1.465,1.465,0,0,0,2.7,14.738H19.3a1.465,1.465,0,0,0,1.453-1.474V2.737A1.465,1.465,0,0,0,19.3,1.264Zm8.322,8.947a1.643,1.643,0,0,1-.965-.312L3.374,5.059a.64.64,0,0,1-.146-.881.622.622,0,0,1,.507-.265.609.609,0,0,1,.362.119L10.778,8.87a.409.409,0,0,0,.483,0L17.9,4.033a.607.607,0,0,1,.362-.119.623.623,0,0,1,.506.263.638.638,0,0,1-.143.881L11.989,9.894A1.629,1.629,0,0,1,11.021,10.21Z" fill="#ff7643"/>
</svg>
