<svg xmlns="http://www.w3.org/2000/svg" width="27.876" height="27.817" viewBox="0 0 27.876 27.817">
  <g id="matahari-department-store" transform="translate(-0.072)">
    <path id="Path" d="M26.622,13.878H24.815a1.291,1.291,0,0,0-1.259,1.007l-.022.182c0,.032-.01.067-.01.1h0A9.672,9.672,0,1,1,13.938,4.2V1.291A1.291,1.291,0,0,0,12.66,0,13.938,13.938,0,1,0,27.876,13.878" transform="translate(0.072 0)" fill="#ed1834"/>
    <path id="Path-2" data-name="Path" d="M0,7.223a7.221,7.221,0,0,0,14.436,0h-2.9A1.827,1.827,0,0,0,9.975,8.27a2.9,2.9,0,0,1-.165.371,2.962,2.962,0,0,1-2.592,1.538,2.959,2.959,0,0,1,0-5.912H21.156V1.291A1.291,1.291,0,0,0,19.862,0H7.218A7.223,7.223,0,0,0,0,7.221" transform="translate(6.793 6.655)" fill="#ed1834"/>
  </g>
</svg>
