<svg xmlns="http://www.w3.org/2000/svg" width="18" height="21" viewBox="0 0 18 21">
  <path id="Parcel" d="M15.237,21H2.763A2.807,2.807,0,0,1,0,18.157V6.573a.654.654,0,0,1,.077-.3.055.055,0,0,0,0-.016.049.049,0,0,1,0-.016l2.73-4.831A2.761,2.761,0,0,1,5.206,0h7.589a2.761,2.761,0,0,1,2.389,1.413l2.73,4.831a.049.049,0,0,1,0,.016.055.055,0,0,0,0,.016.675.675,0,0,1,.077.3V18.157A2.807,2.807,0,0,1,15.237,21ZM1.275,7.231V18.157a1.511,1.511,0,0,0,1.488,1.531H15.237a1.511,1.511,0,0,0,1.488-1.531V7.231ZM9.638,1.312V5.918h6.616L14.081,2.074a1.486,1.486,0,0,0-1.287-.761Zm-4.432,0a1.486,1.486,0,0,0-1.287.761L1.746,5.918H8.362V1.312Zm3.01,15.024a.613.613,0,0,1-.438-.183L5.183,13.559a.621.621,0,1,1,.878-.879l2.155,2.153,4.653-4.65a.622.622,0,0,1,.879.88L8.656,16.153A.619.619,0,0,1,8.216,16.336Z" fill="#ff7643"/>
</svg>
