<svg xmlns="http://www.w3.org/2000/svg" width="27.964" height="27.902" viewBox="0 0 27.964 27.902">
  <g id="pei-wei-logo-81-1" transform="translate(-0.02)">
    <g id="layer2" transform="translate(0.016)">
      <path id="Shape" d="M12.617,27.872a.607.607,0,0,1-.373-.115c-.032-.064-.1-.071-.231-.032a.468.468,0,0,1-.27,0c-.045-.031-.1-.045-.129-.025a2.383,2.383,0,0,1-1.1-.309c-.09-.09-.148-.116-.167-.064-.031.109-.16.1-.463-.032-.16-.071-.257-.155-.257-.225,0-.148.186-.148.3-.006.045.064.1.1.122.07s-.059-.25-.212-.443c-.071-.09-.058-.122.09-.219.116-.077.148-.129.1-.18-.077-.077-.283.058-.225.154.071.122-.167.051-.25-.07-.11-.155-.186-.1-.135.1.031.122.013.154-.09.154-.161,0-.251-.122-.148-.193.058-.032.045-.064-.026-.129-.09-.076-.116-.07-.161.006s-.076.071-.141.007a.449.449,0,0,0-.257-.077c-.1,0-.18-.026-.18-.065,0-.1-.174-.076-.219.032a.155.155,0,0,1-.135.1c-.109,0-.129-.167-.026-.231.052-.031.039-.064-.031-.1a.248.248,0,0,1-.1-.206c0-.193-.155-.4-.219-.3-.032.045,0,.115.064.167.116.083.116.1.013.2s-.115.1-.3-.1a1.165,1.165,0,0,0-.231-.2c-.071,0-.026.186.07.29s.1.109-.013.193c-.154.115-.154.115-.347-.019-.211-.142-.218-.425-.013-.45.174-.026.18-.09.032-.219-.193-.161-.392-.186-.437-.045a.255.255,0,0,0-.006.18c.02.032,0,.084-.045.122s-.141.031-.289-.065c-.167-.1-.193-.148-.135-.219s.051-.09.006-.09a.11.11,0,0,0-.09.077c-.039.1-.714-.411-1.51-1.144A14.239,14.239,0,0,1,.966,19.017a15.558,15.558,0,0,1-.784-2.893c-.039-.283-.084-.61-.1-.726-.019-.148-.013-.205.032-.174s.071-.019.071-.1-.026-.122-.059-.1-.07-.186-.09-.463c-.025-.379-.019-.514.059-.6.115-.129.115-.186-.014-.186-.083,0-.1-.039-.058-.174a1.629,1.629,0,0,0,.032-.4c0-.122.013-.436.032-.694.032-.366.065-.463.135-.437.1.039.122-.064.026-.122s-.084-.225.006-.225.309-.264.315-.366-.109-.1-.154.013a.148.148,0,0,1-.11.1c-.084,0-.031-.45.077-.649A.222.222,0,0,1,.76,10.79c.1.129.193.122.193-.006a.163.163,0,0,0-.128-.135C.753,10.63.7,10.585.7,10.553c0-.129.264-.43.346-.4.116.045.341-.2.38-.411a.388.388,0,0,0-.315-.4.326.326,0,0,1-.18-.122c-.1-.109-.1-.122-.006-.161.18-.064.289-.045.289.059,0,.122.122.129.167.006A.1.1,0,0,1,1.5,9.061c.09.039.251-.334.167-.385a.429.429,0,0,0-.225,0c-.186.032-.186-.019.013-.244.1-.122.052-.257-.083-.2-.051.02-.1,0-.1-.039a.07.07,0,0,1,.064-.07c.039,0,.064-.045.064-.1s.032-.1.065-.1.064.045.064.1.032.09.1.064c.11-.038.283.058.283.161,0,.032-.045.058-.1.058s-.09.032-.064.1a.894.894,0,0,1,.039.231c0,.122.006.122.129-.031a.867.867,0,0,0,.154-.309c.013-.09.058-.141.109-.129a1.759,1.759,0,0,0,.231.039c.129.019.142,0,.11-.135s-.013-.154.09-.154c.166,0,.238-.11.148-.219-.051-.064-.045-.109.026-.167a.267.267,0,0,0,.1-.167c0-.129.109-.167.25-.077.161.1.27.006.122-.1-.065-.045-.1-.1-.071-.122s-.006-.045-.064-.045c-.129,0-.141-.071-.026-.186.065-.071.065-.09,0-.116a.165.165,0,0,1-.083-.148.2.2,0,0,0-.071-.16c-.045-.032-.019-.1.077-.2.186-.2.122-.346-.167-.346-.122,0-.225-.02-.225-.045A8.835,8.835,0,0,1,3.549,4.64c.309-.347.315-.354.5-.264.1.051.18.122.18.154a.058.058,0,0,0,.059.058c.083,0,.006-.277-.1-.367-.084-.064-.084-.1.026-.238a.373.373,0,0,1,.238-.167c.071,0,.1-.032.084-.09s.051-.161.186-.264.225-.141.231-.116.013.09.013.141a.155.155,0,0,0,.1.122c.065.02.077,0,.045-.084a.224.224,0,0,1,.225-.289c.071,0,.129-.019.129-.045A1.976,1.976,0,0,0,5.484,3c.019-.194.084-.245.174-.155.064.065.064.11,0,.206a.707.707,0,0,0-.077.283c0,.2-.3.424-.559.424-.231,0-.27.032-.231.2.031.109.076.122.346.1.341-.039.411.051.206.231-.18.154-.36.2-.315.084.025-.077,0-.09-.141-.058-.219.058-.206.039-.167.2.026.1.122.154.315.205s.3.116.321.2c.058.173.115.16.347-.071.154-.148.193-.231.16-.354s-.013-.154.064-.154c.11,0,.27-.244.2-.309-.02-.025-.1.026-.161.116s-.129.128-.129.083S5.76,4.1,5.664,4.049l-.18-.1.321-.013c.18-.006.4-.006.5,0,.129.013.174-.013.174-.1-.007-.122-.341-.534-.444-.534s-.155-.141-.071-.193c.051-.032.026-.1-.1-.219-.09-.09-.154-.193-.129-.225A10.834,10.834,0,0,1,7.322,1.651c.495-.276.661-.34.7-.276a.164.164,0,0,0,.186.045c.231-.058.219.071-.019.225s-.276.264-.18.418c.077.122.463-.212.463-.4,0-.083.026-.173.065-.193s.045-.122.025-.225c-.039-.166-.019-.193.206-.289.623-.27.944-.36,1-.276.038.064.076.058.141-.032A4.594,4.594,0,0,1,11.678.141,10.985,10.985,0,0,1,14,0a10.844,10.844,0,0,1,2.346.148,14.033,14.033,0,0,1,11.51,11.825,19.042,19.042,0,0,1,.031,3.734,14.24,14.24,0,0,1-3.007,7.031,13.849,13.849,0,0,1-1.825,1.838.376.376,0,0,0-.187.148,8.626,8.626,0,0,1-1.292.957,4.063,4.063,0,0,0-.36.232c-.231.167-.3.179-.25.045.019-.052.006-.1-.026-.1a.07.07,0,0,0-.07.065c-.006.039-.013.1-.02.141A5.557,5.557,0,0,1,18.813,27c-.032-.051-.084-.031-.167.058a7.234,7.234,0,0,1-2.3.668,21.727,21.727,0,0,1-2.853.171C13.141,27.9,12.833,27.893,12.617,27.872Z" transform="translate(0.004)" fill="#e1183e"/>
      <path id="Shape-2" data-name="Shape" d="M12.356,5.135a3.18,3.18,0,0,1,.919-1.651c.18-.174.206-.18.392-.1.463.193.481.591.058,1.029a7.707,7.707,0,0,1-1.369.964C12.33,5.373,12.33,5.263,12.356,5.135ZM.062.379A.378.378,0,0,0,.036.122C-.015.071-.009.039.036.006a.085.085,0,0,1,.11.058.149.149,0,0,0,.128.1c.142,0,.1.148-.083.283L.023.572Z" transform="translate(0.914 9.434)" fill="#e1183e"/>
    </g>
  </g>
</svg>
