<svg xmlns="http://www.w3.org/2000/svg" width="20.001" height="20" viewBox="0 0 20.001 20">
  <path id="Send" d="M11.169,20a1.563,1.563,0,0,1-1.439-.928L6.982,13.017.927,10.27A1.582,1.582,0,0,1,.992,7.362L19.184.043A.586.586,0,0,1,19.73.1l0,0a.271.271,0,0,1,.041.03l0,0,0,0a.391.391,0,0,1,.041.038.4.4,0,0,1,.037.041l.009.011A.2.2,0,0,1,19.9.263.029.029,0,0,1,19.9.27c.011.016.021.032.029.048s.01.021.015.031l.009.019,0,.006a.58.58,0,0,1,.032.333l0,.017a.381.381,0,0,1-.01.037.281.281,0,0,1-.018.053L12.638,19.008A1.554,1.554,0,0,1,11.2,20Zm6.6-16.93L8.142,12.7l2.671,5.885a.379.379,0,0,0,.351.229l.016,0a.381.381,0,0,0,.356-.247Zm-.84-.84L1.434,8.464a.381.381,0,0,0-.246.356.373.373,0,0,0,.23.366L7.3,11.857,16.93,2.23h0Z" transform="translate(0 0)"/>
</svg>
